<?xml version="1.0" encoding="utf-8"?>
<!-- Generator: Adobe Illustrator 27.1.1, SVG Export Plug-In . SVG Version: 6.00 Build 0)  -->
<svg version="1.1" id="a" xmlns="http://www.w3.org/2000/svg" xmlns:xlink="http://www.w3.org/1999/xlink" x="0px" y="0px"
	 viewBox="0 0 190.9 313.3" style="enable-background:new 0 0 190.9 313.3;" xml:space="preserve">
<style type="text/css">
	.st0{fill:none;stroke:#CCC;stroke-width:25;stroke-miterlimit:10;}
	.st1{fill:#0B2C54;}
	.st2{fill:#4098FF;}
	.st3{fill:#1463B2;}
</style>
<path class="st0" d="M41.8,172.1L15,187.6l0,61.9L95.5,296l26.8-15.5v-92.9l53.6-31l0-92.9l0,0L95.5,17.3L15,63.8v92.9L41.8,172.1z"
	/>
<g>
	<path class="st1" d="M15,63.8v92.9l53.6,30.9v61.9L41.8,234v-30.9L15,187.6v61.9L95.5,296V110.2L15,63.8z M68.6,156.7l-26.8-15.5
		v-31l26.8,15.5V156.7z"/>
	<polygon class="st2" points="41.8,203.1 68.6,187.6 41.8,172.1 15,187.6 	"/>
	<polygon class="st3" points="41.8,234.1 68.6,218.6 68.6,187.6 41.8,203.1 	"/>
	<polygon class="st2" points="68.6,249.5 68.6,218.6 41.8,234.1 	"/>
	<polygon class="st3" points="41.8,141.2 68.6,125.7 41.8,110.2 	"/>
	<polygon class="st2" points="68.6,156.7 68.6,125.7 41.8,141.2 	"/>
	<path class="st3" d="M95.5,110.2V296l26.8-15.5v-92.9l53.6-30.9V63.8L95.5,110.2L95.5,110.2z M149.1,141.2l-26.8,15.5v-31
		l26.8-15.5V141.2L149.1,141.2z"/>
	<polygon class="st2" points="122.3,156.7 149.1,141.2 122.3,125.7 	"/>
	<polygon class="st1" points="149.1,110.2 149.1,141.2 122.3,125.7 	"/>
	<polygon class="st2" points="15,63.8 95.5,110.2 175.9,63.8 95.5,17.3 	"/>
</g>
</svg>
