<?xml version="1.0" encoding="utf-8"?>
<!-- Generator: Adobe Illustrator 27.0.0, SVG Export Plug-In . SVG Version: 6.00 Build 0)  -->
<svg version="1.1" id="Layer_1" xmlns="http://www.w3.org/2000/svg" xmlns:xlink="http://www.w3.org/1999/xlink" x="0px" y="0px"
	 viewBox="0 0 1000 1000" style="enable-background:new 0 0 1000 1000;" xml:space="preserve">
<style type="text/css">
	.st0{display:none;}
	.st1{display:inline;}
	.st2{fill:none;stroke:#000000;stroke-width:0.25;stroke-miterlimit:10;}
	.st3{fill:#0B2C54;}
	.st4{fill:#1463B2;}
	.st5{fill:#4098FF;}
</style>
<g id="Layer_1_00000149374177723145599710000010204010186564007090_" class="st0">
	<g class="st1">
		<g>
			<g>
				<line class="st2" x1="1148" y1="-128.5" x2="1148" y2="1128.5"/>
			</g>
			<g>
				<line class="st2" x1="1121" y1="-128.5" x2="1121" y2="1128.5"/>
			</g>
			<g>
				<line class="st2" x1="1094" y1="-128.5" x2="1094" y2="1128.5"/>
			</g>
			<g>
				<line class="st2" x1="1067" y1="-128.5" x2="1067" y2="1128.5"/>
			</g>
			<g>
				<line class="st2" x1="1040" y1="-128.5" x2="1040" y2="1128.5"/>
			</g>
			<g>
				<line class="st2" x1="1013" y1="-128.5" x2="1013" y2="1128.5"/>
			</g>
			<g>
				<line class="st2" x1="986" y1="-128.5" x2="986" y2="1128.5"/>
			</g>
			<g>
				<line class="st2" x1="959" y1="-128.5" x2="959" y2="1128.5"/>
			</g>
			<g>
				<line class="st2" x1="932" y1="-128.5" x2="932" y2="1128.5"/>
			</g>
			<g>
				<line class="st2" x1="905" y1="-128.5" x2="905" y2="1128.5"/>
			</g>
			<g>
				<line class="st2" x1="878" y1="-128.5" x2="878" y2="1128.5"/>
			</g>
			<g>
				<line class="st2" x1="851" y1="-128.5" x2="851" y2="1128.5"/>
			</g>
			<g>
				<line class="st2" x1="824" y1="-128.5" x2="824" y2="1128.5"/>
			</g>
			<g>
				<line class="st2" x1="797" y1="-128.5" x2="797" y2="1128.5"/>
			</g>
			<g>
				<line class="st2" x1="770" y1="-128.5" x2="770" y2="1128.5"/>
			</g>
			<g>
				<line class="st2" x1="743" y1="-128.5" x2="743" y2="1128.5"/>
			</g>
			<g>
				<line class="st2" x1="716" y1="-128.5" x2="716" y2="1128.5"/>
			</g>
			<g>
				<line class="st2" x1="689" y1="-128.5" x2="689" y2="1128.5"/>
			</g>
			<g>
				<line class="st2" x1="662" y1="-128.5" x2="662" y2="1128.5"/>
			</g>
			<g>
				<line class="st2" x1="635" y1="-128.5" x2="635" y2="1128.5"/>
			</g>
			<g>
				<line class="st2" x1="608" y1="-128.5" x2="608" y2="1128.5"/>
			</g>
			<g>
				<line class="st2" x1="581" y1="-128.5" x2="581" y2="1128.5"/>
			</g>
			<g>
				<line class="st2" x1="554" y1="-128.5" x2="554" y2="1128.5"/>
			</g>
			<g>
				<line class="st2" x1="527" y1="-128.5" x2="527" y2="1128.5"/>
			</g>
			<g>
				<line class="st2" x1="500" y1="-128.5" x2="500" y2="1128.5"/>
			</g>
			<g>
				<line class="st2" x1="473" y1="-128.5" x2="473" y2="1128.5"/>
			</g>
			<g>
				<line class="st2" x1="446" y1="-128.5" x2="446" y2="1128.5"/>
			</g>
			<g>
				<line class="st2" x1="419" y1="-128.5" x2="419" y2="1128.5"/>
			</g>
			<g>
				<line class="st2" x1="392" y1="-128.5" x2="392" y2="1128.5"/>
			</g>
			<g>
				<line class="st2" x1="365" y1="-128.5" x2="365" y2="1128.5"/>
			</g>
			<g>
				<line class="st2" x1="338" y1="-128.5" x2="338" y2="1128.5"/>
			</g>
			<g>
				<line class="st2" x1="311" y1="-128.5" x2="311" y2="1128.5"/>
			</g>
			<g>
				<line class="st2" x1="284" y1="-128.5" x2="284" y2="1128.5"/>
			</g>
			<g>
				<line class="st2" x1="257" y1="-128.5" x2="257" y2="1128.5"/>
			</g>
			<g>
				<line class="st2" x1="230" y1="-128.5" x2="230" y2="1128.5"/>
			</g>
			<g>
				<line class="st2" x1="203" y1="-128.5" x2="203" y2="1128.5"/>
			</g>
			<g>
				<line class="st2" x1="176" y1="-128.5" x2="176" y2="1128.5"/>
			</g>
			<g>
				<line class="st2" x1="149" y1="-128.5" x2="149" y2="1128.5"/>
			</g>
			<g>
				<line class="st2" x1="122" y1="-128.5" x2="122" y2="1128.5"/>
			</g>
			<g>
				<line class="st2" x1="95" y1="-128.5" x2="95" y2="1128.5"/>
			</g>
			<g>
				<line class="st2" x1="68" y1="-128.5" x2="68" y2="1128.5"/>
			</g>
			<g>
				<line class="st2" x1="41" y1="-128.5" x2="41" y2="1128.5"/>
			</g>
			<g>
				<line class="st2" x1="14" y1="-128.5" x2="14" y2="1128.5"/>
			</g>
			<g>
				<line class="st2" x1="-13" y1="-128.5" x2="-13" y2="1128.5"/>
			</g>
			<g>
				<line class="st2" x1="-40" y1="-128.5" x2="-40" y2="1128.5"/>
			</g>
			<g>
				<line class="st2" x1="-67" y1="-128.5" x2="-67" y2="1128.5"/>
			</g>
			<g>
				<line class="st2" x1="-94" y1="-128.5" x2="-94" y2="1128.5"/>
			</g>
			<g>
				<line class="st2" x1="-121" y1="-128.5" x2="-121" y2="1128.5"/>
			</g>
			<g>
				<line class="st2" x1="-148" y1="-128.5" x2="-148" y2="1128.5"/>
			</g>
		</g>
		<g>
			<g>
				<line class="st2" x1="279.7" y1="-375.4" x2="1368.3" y2="253.1"/>
			</g>
			<g>
				<line class="st2" x1="266.2" y1="-352.1" x2="1354.8" y2="276.4"/>
			</g>
			<g>
				<line class="st2" x1="252.7" y1="-328.7" x2="1341.3" y2="299.8"/>
			</g>
			<g>
				<line class="st2" x1="239.2" y1="-305.3" x2="1327.8" y2="323.2"/>
			</g>
			<g>
				<line class="st2" x1="225.7" y1="-281.9" x2="1314.3" y2="346.6"/>
			</g>
			<g>
				<line class="st2" x1="212.2" y1="-258.5" x2="1300.8" y2="370"/>
			</g>
			<g>
				<line class="st2" x1="198.7" y1="-235.1" x2="1287.3" y2="393.4"/>
			</g>
			<g>
				<line class="st2" x1="185.2" y1="-211.8" x2="1273.8" y2="416.7"/>
			</g>
			<g>
				<line class="st2" x1="171.7" y1="-188.4" x2="1260.3" y2="440.1"/>
			</g>
			<g>
				<line class="st2" x1="158.2" y1="-165" x2="1246.8" y2="463.5"/>
			</g>
			<g>
				<line class="st2" x1="144.7" y1="-141.6" x2="1233.3" y2="486.9"/>
			</g>
			<g>
				<line class="st2" x1="131.2" y1="-118.2" x2="1219.8" y2="510.3"/>
			</g>
			<g>
				<line class="st2" x1="117.7" y1="-94.8" x2="1206.3" y2="533.7"/>
			</g>
			<g>
				<line class="st2" x1="104.2" y1="-71.5" x2="1192.8" y2="557"/>
			</g>
			<g>
				<line class="st2" x1="90.7" y1="-48.1" x2="1179.3" y2="580.4"/>
			</g>
			<g>
				<line class="st2" x1="77.2" y1="-24.7" x2="1165.8" y2="603.8"/>
			</g>
			<g>
				<line class="st2" x1="63.7" y1="-1.3" x2="1152.3" y2="627.2"/>
			</g>
			<g>
				<line class="st2" x1="50.2" y1="22.1" x2="1138.8" y2="650.6"/>
			</g>
			<g>
				<line class="st2" x1="36.7" y1="45.5" x2="1125.3" y2="674"/>
			</g>
			<g>
				<line class="st2" x1="23.2" y1="68.8" x2="1111.8" y2="697.3"/>
			</g>
			<g>
				<line class="st2" x1="9.7" y1="92.2" x2="1098.3" y2="720.7"/>
			</g>
			<g>
				<line class="st2" x1="-3.8" y1="115.6" x2="1084.8" y2="744.1"/>
			</g>
			<g>
				<line class="st2" x1="-17.3" y1="139" x2="1071.3" y2="767.5"/>
			</g>
			<g>
				<line class="st2" x1="-30.8" y1="162.4" x2="1057.8" y2="790.9"/>
			</g>
			<g>
				<line class="st2" x1="-44.3" y1="185.8" x2="1044.3" y2="814.2"/>
			</g>
			<g>
				<line class="st2" x1="-57.8" y1="209.1" x2="1030.8" y2="837.6"/>
			</g>
			<g>
				<line class="st2" x1="-71.3" y1="232.5" x2="1017.3" y2="861"/>
			</g>
			<g>
				<line class="st2" x1="-84.8" y1="255.9" x2="1003.8" y2="884.4"/>
			</g>
			<g>
				<line class="st2" x1="-98.3" y1="279.3" x2="990.3" y2="907.8"/>
			</g>
			<g>
				<line class="st2" x1="-111.8" y1="302.7" x2="976.8" y2="931.2"/>
			</g>
			<g>
				<line class="st2" x1="-125.3" y1="326" x2="963.3" y2="954.5"/>
			</g>
			<g>
				<line class="st2" x1="-138.8" y1="349.4" x2="949.8" y2="977.9"/>
			</g>
			<g>
				<line class="st2" x1="-152.3" y1="372.8" x2="936.3" y2="1001.3"/>
			</g>
			<g>
				<line class="st2" x1="-165.8" y1="396.2" x2="922.8" y2="1024.7"/>
			</g>
			<g>
				<line class="st2" x1="-179.3" y1="419.6" x2="909.3" y2="1048.1"/>
			</g>
			<g>
				<line class="st2" x1="-192.8" y1="443" x2="895.8" y2="1071.5"/>
			</g>
			<g>
				<line class="st2" x1="-206.3" y1="466.3" x2="882.3" y2="1094.8"/>
			</g>
			<g>
				<line class="st2" x1="-219.8" y1="489.7" x2="868.8" y2="1118.2"/>
			</g>
			<g>
				<line class="st2" x1="-233.3" y1="513.1" x2="855.3" y2="1141.6"/>
			</g>
			<g>
				<line class="st2" x1="-246.8" y1="536.5" x2="841.8" y2="1165"/>
			</g>
			<g>
				<line class="st2" x1="-260.3" y1="559.9" x2="828.3" y2="1188.4"/>
			</g>
			<g>
				<line class="st2" x1="-273.8" y1="583.3" x2="814.8" y2="1211.8"/>
			</g>
			<g>
				<line class="st2" x1="-287.3" y1="606.6" x2="801.3" y2="1235.1"/>
			</g>
			<g>
				<line class="st2" x1="-300.8" y1="630" x2="787.8" y2="1258.5"/>
			</g>
			<g>
				<line class="st2" x1="-314.3" y1="653.4" x2="774.3" y2="1281.9"/>
			</g>
			<g>
				<line class="st2" x1="-327.8" y1="676.8" x2="760.8" y2="1305.3"/>
			</g>
			<g>
				<line class="st2" x1="-341.3" y1="700.2" x2="747.3" y2="1328.7"/>
			</g>
			<g>
				<line class="st2" x1="-354.8" y1="723.6" x2="733.8" y2="1352.1"/>
			</g>
			<g>
				<line class="st2" x1="-368.3" y1="746.9" x2="720.3" y2="1375.4"/>
			</g>
		</g>
		<g>
			<g>
				<line class="st2" x1="720.3" y1="-375.4" x2="-368.3" y2="253.1"/>
			</g>
			<g>
				<line class="st2" x1="733.8" y1="-352.1" x2="-354.8" y2="276.4"/>
			</g>
			<g>
				<line class="st2" x1="747.3" y1="-328.7" x2="-341.3" y2="299.8"/>
			</g>
			<g>
				<line class="st2" x1="760.8" y1="-305.3" x2="-327.8" y2="323.2"/>
			</g>
			<g>
				<line class="st2" x1="774.3" y1="-281.9" x2="-314.3" y2="346.6"/>
			</g>
			<g>
				<line class="st2" x1="787.8" y1="-258.5" x2="-300.8" y2="370"/>
			</g>
			<g>
				<line class="st2" x1="801.3" y1="-235.1" x2="-287.3" y2="393.4"/>
			</g>
			<g>
				<line class="st2" x1="814.8" y1="-211.8" x2="-273.8" y2="416.7"/>
			</g>
			<g>
				<line class="st2" x1="828.3" y1="-188.4" x2="-260.3" y2="440.1"/>
			</g>
			<g>
				<line class="st2" x1="841.8" y1="-165" x2="-246.8" y2="463.5"/>
			</g>
			<g>
				<line class="st2" x1="855.3" y1="-141.6" x2="-233.3" y2="486.9"/>
			</g>
			<g>
				<line class="st2" x1="868.8" y1="-118.2" x2="-219.8" y2="510.3"/>
			</g>
			<g>
				<line class="st2" x1="882.3" y1="-94.8" x2="-206.3" y2="533.7"/>
			</g>
			<g>
				<line class="st2" x1="895.8" y1="-71.5" x2="-192.8" y2="557"/>
			</g>
			<g>
				<line class="st2" x1="909.3" y1="-48.1" x2="-179.3" y2="580.4"/>
			</g>
			<g>
				<line class="st2" x1="922.8" y1="-24.7" x2="-165.8" y2="603.8"/>
			</g>
			<g>
				<line class="st2" x1="936.3" y1="-1.3" x2="-152.3" y2="627.2"/>
			</g>
			<g>
				<line class="st2" x1="949.8" y1="22.1" x2="-138.8" y2="650.6"/>
			</g>
			<g>
				<line class="st2" x1="963.3" y1="45.5" x2="-125.3" y2="674"/>
			</g>
			<g>
				<line class="st2" x1="976.8" y1="68.8" x2="-111.8" y2="697.3"/>
			</g>
			<g>
				<line class="st2" x1="990.3" y1="92.2" x2="-98.3" y2="720.7"/>
			</g>
			<g>
				<line class="st2" x1="1003.8" y1="115.6" x2="-84.8" y2="744.1"/>
			</g>
			<g>
				<line class="st2" x1="1017.3" y1="139" x2="-71.3" y2="767.5"/>
			</g>
			<g>
				<line class="st2" x1="1030.8" y1="162.4" x2="-57.8" y2="790.9"/>
			</g>
			<g>
				<line class="st2" x1="1044.3" y1="185.8" x2="-44.3" y2="814.2"/>
			</g>
			<g>
				<line class="st2" x1="1057.8" y1="209.1" x2="-30.8" y2="837.6"/>
			</g>
			<g>
				<line class="st2" x1="1071.3" y1="232.5" x2="-17.3" y2="861"/>
			</g>
			<g>
				<line class="st2" x1="1084.8" y1="255.9" x2="-3.8" y2="884.4"/>
			</g>
			<g>
				<line class="st2" x1="1098.3" y1="279.3" x2="9.7" y2="907.8"/>
			</g>
			<g>
				<line class="st2" x1="1111.8" y1="302.7" x2="23.2" y2="931.2"/>
			</g>
			<g>
				<line class="st2" x1="1125.3" y1="326" x2="36.7" y2="954.5"/>
			</g>
			<g>
				<line class="st2" x1="1138.8" y1="349.4" x2="50.2" y2="977.9"/>
			</g>
			<g>
				<line class="st2" x1="1152.3" y1="372.8" x2="63.7" y2="1001.3"/>
			</g>
			<g>
				<line class="st2" x1="1165.8" y1="396.2" x2="77.2" y2="1024.7"/>
			</g>
			<g>
				<line class="st2" x1="1179.3" y1="419.6" x2="90.7" y2="1048.1"/>
			</g>
			<g>
				<line class="st2" x1="1192.8" y1="443" x2="104.2" y2="1071.5"/>
			</g>
			<g>
				<line class="st2" x1="1206.3" y1="466.3" x2="117.7" y2="1094.8"/>
			</g>
			<g>
				<line class="st2" x1="1219.8" y1="489.7" x2="131.2" y2="1118.2"/>
			</g>
			<g>
				<line class="st2" x1="1233.3" y1="513.1" x2="144.7" y2="1141.6"/>
			</g>
			<g>
				<line class="st2" x1="1246.8" y1="536.5" x2="158.2" y2="1165"/>
			</g>
			<g>
				<line class="st2" x1="1260.3" y1="559.9" x2="171.7" y2="1188.4"/>
			</g>
			<g>
				<line class="st2" x1="1273.8" y1="583.3" x2="185.2" y2="1211.8"/>
			</g>
			<g>
				<line class="st2" x1="1287.3" y1="606.6" x2="198.7" y2="1235.1"/>
			</g>
			<g>
				<line class="st2" x1="1300.8" y1="630" x2="212.2" y2="1258.5"/>
			</g>
			<g>
				<line class="st2" x1="1314.3" y1="653.4" x2="225.7" y2="1281.9"/>
			</g>
			<g>
				<line class="st2" x1="1327.8" y1="676.8" x2="239.2" y2="1305.3"/>
			</g>
			<g>
				<line class="st2" x1="1341.3" y1="700.2" x2="252.7" y2="1328.7"/>
			</g>
			<g>
				<line class="st2" x1="1354.8" y1="723.6" x2="266.2" y2="1352.1"/>
			</g>
			<g>
				<line class="st2" x1="1368.3" y1="746.9" x2="279.7" y2="1375.4"/>
			</g>
		</g>
	</g>
</g>
<path class="st3" d="M227.1,188.9v313.6L408.2,607v209.1l-90.5-52.3V659.4l-90.5-52.3v209.1L498.8,973V345.7L227.1,188.9z
	 M408.2,502.6l-90.5-52.3V345.7l90.5,52.3V502.6z"/>
<path class="st4" d="M498.8,345.7V973l90.5-52.3V607.1l181.1-104.5V188.9L498.8,345.7z M679.8,450.3l-90.5,52.3V398.1l90.5-52.3
	V450.3z"/>
<polygon class="st5" points="227.1,188.9 498.8,345.7 770.4,188.9 498.8,32.1 "/>
</svg>
