<?xml version="1.0" encoding="UTF-8"?><svg id="a" xmlns="http://www.w3.org/2000/svg" viewBox="0 0 164.81 281"><defs><style>.b{fill:#4098ff;}.c{fill:#1463b2;}.d{fill:#0b2c54;}</style></defs><path class="d" d="M1.96,47.61v92.87l53.63,30.95v61.93l-26.8-15.49v-30.92L1.99,171.46v61.93l80.44,46.44V94.05L1.96,47.61Zm53.63,92.9l-26.8-15.49v-30.98l26.8,15.49v30.98Z"/><polygon class="b" points="28.79 186.95 55.59 171.46 28.79 155.97 1.96 171.46 28.79 186.95"/><polygon class="c" points="28.79 217.9 55.59 202.41 55.59 171.46 28.79 186.95 28.79 217.9"/><polygon class="b" points="55.59 233.39 55.59 202.41 28.79 217.9 55.59 233.39"/><polygon class="c" points="28.79 125.03 55.59 109.54 28.79 94.05 28.79 125.03"/><polygon class="b" points="55.59 140.51 55.59 109.54 28.79 125.03 55.59 140.51"/><path class="c" d="M82.42,94.05v185.78l26.8-15.49v-92.87l53.63-30.95V47.61l-80.44,46.44Zm53.6,30.98l-26.8,15.49v-30.95l26.8-15.49v30.95Z"/><polygon class="b" points="109.22 140.51 136.03 125.03 109.22 109.54 109.22 140.51"/><polygon class="d" points="136.03 94.05 136.03 125.03 109.22 109.54 136.03 94.05"/><polygon class="b" points="1.96 47.61 82.42 94.05 162.86 47.61 82.42 1.17 1.96 47.61"/></svg>